<svg width="32" height="30" viewBox="0 0 32 30" fill="none" xmlns="http://www.w3.org/2000/svg">
<path d="M25.6916 25.0563C27.3412 24.6435 28.5716 24.2323 28.5716 24.2323C28.9503 24.0389 29.2672 23.7431 29.4861 23.3785C29.7051 23.0139 29.8173 22.5951 29.81 22.1699V19.6947C29.1748 21.9436 27.7006 23.8628 25.6916 25.0563ZM27.3412 17.6339L24.4612 16.3955V18.0403C24.3786 18.7648 24.1541 19.466 23.8005 20.1037C23.4469 20.7415 22.9711 21.3033 22.4004 21.7571C22.8132 21.7571 22.8132 22.1699 22.8132 22.5827L22.4004 23.4067L24.05 24.2323C27.3492 22.9939 28.1748 19.2835 28.586 17.2211L27.3412 17.6339ZM16.2068 22.5827C15.7509 21.8293 15.4689 20.9837 15.3812 20.1075V26.7059C15.4244 27.019 15.5695 27.3091 15.794 27.5315H17.0308C18.7415 27.42 20.418 27.0005 21.9796 26.2931C20.8027 26.1405 19.6744 25.7286 18.676 25.0869C17.6777 24.4453 16.8343 23.5899 16.2068 22.5827ZM19.506 14.3347C19.4849 14.784 19.6321 15.225 19.9188 15.5715C20.33 15.5715 20.7428 15.5715 21.1556 14.7459C21.5684 13.9203 21.1556 13.0963 20.33 13.0963C20.098 13.2149 19.9004 13.391 19.7561 13.6078C19.6118 13.8247 19.5257 14.075 19.506 14.3347ZM15.794 11.8595V16.8083C16.0245 15.123 16.6738 13.5224 17.6826 12.1529C18.6913 10.7833 20.0273 9.68839 21.5684 8.96833L17.0308 10.2051C16.2068 10.2099 15.794 11.0355 15.794 11.8595ZM14.1444 11.8595C14.0883 11.1033 14.3082 10.3523 14.7633 9.74577C15.2184 9.13918 15.8778 8.71804 16.6196 8.56033L26.9284 6.08673L18.2692 2.78753H16.6196L5.07237 5.26113C5.07237 5.26113 3.83397 5.67393 3.83397 6.49793V7.32033L3.00997 8.97313V11.4467L2.18437 11.8595V12.6851L3.00997 13.0963V15.1603L3.83397 16.3971V21.7587C3.83156 21.8678 3.85127 21.9762 3.89191 22.0775C3.93255 22.1787 3.99328 22.2707 4.07043 22.3479C4.14757 22.425 4.23955 22.4857 4.3408 22.5264C4.44205 22.567 4.55049 22.5867 4.65957 22.5843C5.48357 22.9955 10.8452 25.4643 14.1444 26.7075V11.8595ZM24.4548 11.8595L27.3348 13.0963L28.1604 12.6851C27.6583 12.0554 27.2419 11.3619 26.922 10.6227C26.17 10.1651 25.3245 9.88291 24.4484 9.79713L24.4548 11.8595ZM28.9908 7.32033L23.218 8.55713C24.0158 8.34227 24.8564 8.34358 25.6535 8.56093C26.4507 8.77828 27.1756 9.20384 27.754 9.79393C28.2486 10.0988 28.6589 10.523 28.9471 11.0276C29.2353 11.5321 29.3922 12.101 29.4036 12.6819V7.32033C29.4036 6.91073 28.9908 6.91073 28.9908 7.32033ZM30.8692 5.24033C30.5656 4.93369 30.1742 4.72904 29.7492 4.65473L19.162 0.58593C18.7186 0.344116 18.2231 0.21356 17.7181 0.205478C17.2131 0.197396 16.7137 0.312029 16.2628 0.53953C14.6452 0.94433 4.83877 2.98913 4.67077 3.02753C3.86656 3.19261 3.14224 3.62587 2.6164 4.25634C2.09057 4.88682 1.79439 5.67715 1.77637 6.49793V6.76673L1.01637 8.28033L0.960365 10.2419L0.134766 10.6547V13.7635L0.545966 14.1763V15.7571L1.37157 16.9939V21.7571C1.38642 22.4118 1.58959 23.0484 1.95677 23.5906C2.32394 24.1329 2.83957 24.5579 3.44197 24.8147C3.96997 24.9907 6.42117 26.0355 8.79077 27.0451C14.6484 29.5411 15.3092 29.7955 15.5956 29.7955H16.4212L17.346 29.7859C18.9332 29.5219 22.8916 28.2995 25.7844 27.4067C27.1796 26.9747 28.6228 26.5299 28.7924 26.4979L29.0676 26.4307C29.9096 26.0842 30.6281 25.4928 31.1299 24.7331C31.6317 23.9733 31.8937 23.0804 31.882 22.1699V7.73633C31.9308 7.26913 31.8639 6.7971 31.6873 6.36183C31.5107 5.92656 31.2297 5.54141 30.8692 5.24033ZM30.6436 22.1715C30.6506 22.8368 30.459 23.489 30.0933 24.0448C29.7276 24.6006 29.2045 25.0347 28.5908 25.2915C28.2708 25.3539 27.5556 25.5699 25.4132 26.2323C22.5556 27.1139 18.6404 28.3235 17.2372 28.5651L15.6868 28.5763C15.2724 28.4755 11.8004 26.9955 9.26597 25.9155C6.65477 24.7955 4.39877 23.8355 3.90277 23.6755C3.52771 23.5088 3.20656 23.2408 2.97537 22.9016C2.74418 22.5625 2.6121 22.1656 2.59397 21.7555V16.6227L1.76837 15.3859V13.6675L1.35717 13.2547V11.4147L2.18117 11.0003V8.70593L2.94117 7.18593L3.00677 6.49793C3.00677 6.09793 3.00677 4.87873 4.99077 4.21313C5.39557 4.12993 14.9204 2.14433 16.6868 1.68673C16.9927 1.526 17.3338 1.44402 17.6794 1.44822C18.025 1.45241 18.364 1.54263 18.666 1.71073L29.386 5.83553L29.6068 5.87713C29.755 5.91897 29.8896 5.99897 29.9972 6.10913C30.2416 6.29666 30.4303 6.54722 30.543 6.8339C30.6558 7.12057 30.6883 7.43255 30.6372 7.73633L30.6436 22.1715Z" fill="#1E2330"/>
</svg>
