<svg width="22" height="13" viewBox="0 0 22 13" fill="#1877F2" xmlns="http://www.w3.org/2000/svg">
<path d="M6.66699 2.16667C4.23166 2.16667 2.33366 4.06467 2.33366 6.5C2.33366 8.93533 4.23166 10.8333 6.66699 10.8333H8.83366C9.12098 10.8333 9.39653 10.9475 9.59969 11.1506C9.80285 11.3538 9.91699 11.6293 9.91699 11.9167C9.91699 12.204 9.80285 12.4795 9.59969 12.6827C9.39653 12.8859 9.12098 13 8.83366 13H6.66699C3.03566 13 0.166992 10.1313 0.166992 6.5C0.166992 2.86867 3.03566 0 6.66699 0H8.83366C9.12098 0 9.39653 0.114137 9.59969 0.317301C9.80285 0.520466 9.91699 0.796016 9.91699 1.08333C9.91699 1.37065 9.80285 1.6462 9.59969 1.84937C9.39653 2.05253 9.12098 2.16667 8.83366 2.16667H6.66699ZM12.0837 1.08333C12.0837 0.796016 12.1978 0.520466 12.401 0.317301C12.6041 0.114137 12.8797 0 13.167 0H15.3337C18.965 0 21.8337 2.86867 21.8337 6.5C21.8337 10.1313 18.965 13 15.3337 13H13.167C12.8797 13 12.6041 12.8859 12.401 12.6827C12.1978 12.4795 12.0837 12.204 12.0837 11.9167C12.0837 11.6293 12.1978 11.3538 12.401 11.1506C12.6041 10.9475 12.8797 10.8333 13.167 10.8333H15.3337C17.769 10.8333 19.667 8.93533 19.667 6.5C19.667 4.06467 17.769 2.16667 15.3337 2.16667H13.167C12.8797 2.16667 12.6041 2.05253 12.401 1.84937C12.1978 1.6462 12.0837 1.37065 12.0837 1.08333ZM5.58366 6.5C5.58366 6.21268 5.6978 5.93713 5.90096 5.73397C6.10412 5.5308 6.37967 5.41667 6.66699 5.41667H15.3337C15.621 5.41667 15.8965 5.5308 16.0997 5.73397C16.3029 5.93713 16.417 6.21268 16.417 6.5C16.417 6.78732 16.3029 7.06287 16.0997 7.26603C15.8965 7.4692 15.621 7.58333 15.3337 7.58333H6.66699C6.37967 7.58333 6.10412 7.4692 5.90096 7.26603C5.6978 7.06287 5.58366 6.78732 5.58366 6.5Z" fill="#1877F2"/>
</svg>
