<svg width="14" height="14" viewBox="0 0 14 14" fill="none" xmlns="http://www.w3.org/2000/svg">
<g clip-path="url(#clip0_14_1292)">
<rect width="14" height="14" rx="1.3" fill="#A2A2A2"/>
<path d="M12.9231 0H1.07692C0.791305 0 0.517386 0.13409 0.315423 0.372773C0.113461 0.611456 0 0.935179 0 1.27273V12.7273C0 13.0648 0.113461 13.3885 0.315423 13.6272C0.517386 13.8659 0.791305 14 1.07692 14H12.9231C13.2087 14 13.4826 13.8659 13.6846 13.6272C13.8865 13.3885 14 13.0648 14 12.7273V1.27273C14 0.935179 13.8865 0.611456 13.6846 0.372773C13.4826 0.13409 13.2087 0 12.9231 0ZM12.2271 3.63205L5.76558 11.2684C5.71557 11.3276 5.65618 11.3745 5.59081 11.4065C5.52545 11.4386 5.45538 11.455 5.38462 11.455C5.31385 11.455 5.24379 11.4386 5.17842 11.4065C5.11305 11.3745 5.05366 11.3276 5.00365 11.2684L2.31135 8.08659C2.21031 7.96718 2.15355 7.80523 2.15355 7.63636C2.15355 7.4675 2.21031 7.30554 2.31135 7.18614C2.41238 7.06673 2.54942 6.99965 2.69231 6.99965C2.8352 6.99965 2.97223 7.06673 3.07327 7.18614L5.38462 9.91852L11.4652 2.73159C11.5662 2.61218 11.7033 2.5451 11.8462 2.5451C11.989 2.5451 12.1261 2.61218 12.2271 2.73159C12.3282 2.851 12.3849 3.01295 12.3849 3.18182C12.3849 3.35069 12.3282 3.51264 12.2271 3.63205Z" fill="#F3F3F1"/>
</g>
<defs>
<clipPath id="clip0_14_1292">
<rect width="14" height="14" rx="1.3" fill="white"/>
</clipPath>
</defs>
</svg>
