<svg width="32" height="11" viewBox="0 0 32 11" fill="none" xmlns="http://www.w3.org/2000/svg">
<path d="M0.150838 1.36383V0.247818H7.94265V1.36383H4.67577V10.6369H3.41772V1.36383H0.150838ZM11.8588 10.7992C11.1081 10.7992 10.4604 10.6335 9.91597 10.3021C9.37487 9.96729 8.95721 9.5006 8.66299 8.90201C8.37215 8.30003 8.22673 7.59999 8.22673 6.80187C8.22673 6.00375 8.37215 5.30032 8.66299 4.69159C8.95721 4.07947 9.36641 3.60263 9.8906 3.26106C10.4182 2.91611 11.0337 2.74363 11.7371 2.74363C12.1429 2.74363 12.5437 2.81127 12.9394 2.94654C13.335 3.08182 13.6952 3.30164 14.0199 3.60601C14.3445 3.90699 14.6032 4.30605 14.796 4.80319C14.9888 5.30032 15.0851 5.91244 15.0851 6.63954V7.14682H9.07896V6.11197H13.8677C13.8677 5.67233 13.7797 5.28003 13.6039 4.93508C13.4314 4.59013 13.1845 4.31789 12.8633 4.11836C12.5454 3.91883 12.17 3.81907 11.7371 3.81907C11.2603 3.81907 10.8477 3.93743 10.4993 4.17416C10.1544 4.40751 9.88891 4.71188 9.70291 5.08726C9.51691 5.46265 9.42391 5.86509 9.42391 6.29459V6.98449C9.42391 7.57293 9.52536 8.07176 9.72827 8.48096C9.93457 8.88679 10.2203 9.19623 10.5856 9.40929C10.9508 9.61896 11.3752 9.7238 11.8588 9.7238C12.1734 9.7238 12.4574 9.67983 12.7111 9.59191C12.9681 9.5006 13.1896 9.36532 13.3756 9.18608C13.5616 9.00346 13.7053 8.77688 13.8068 8.50633L14.9634 8.83099C14.8417 9.22328 14.637 9.56823 14.3496 9.86584C14.0621 10.1601 13.707 10.39 13.2843 10.5557C12.8616 10.7181 12.3864 10.7992 11.8588 10.7992ZM20.0717 10.7992C19.3412 10.7992 18.7122 10.6268 18.1846 10.2818C17.6571 9.93686 17.2512 9.4617 16.9672 8.85635C16.6831 8.251 16.541 7.55941 16.541 6.78158C16.541 5.99022 16.6865 5.29187 16.9773 4.68651C17.2715 4.07778 17.6807 3.60263 18.2049 3.26106C18.7325 2.91611 19.348 2.74363 20.0514 2.74363C20.5993 2.74363 21.093 2.84509 21.5327 3.048C21.9723 3.25091 22.3325 3.53499 22.6132 3.90023C22.8939 4.26547 23.068 4.69159 23.1357 5.17857H21.9385C21.8472 4.82348 21.6443 4.50897 21.3298 4.23503C21.0186 3.95772 20.5993 3.81907 20.0717 3.81907C19.605 3.81907 19.1958 3.94081 18.8441 4.18431C18.4958 4.42442 18.2235 4.7643 18.0274 5.20394C17.8346 5.6402 17.7382 6.15255 17.7382 6.741C17.7382 7.34297 17.8329 7.86716 18.0223 8.31356C18.2151 8.75997 18.4856 9.10661 18.8339 9.35348C19.1857 9.60036 19.5982 9.7238 20.0717 9.7238C20.3828 9.7238 20.6652 9.66969 20.9189 9.56147C21.1725 9.45325 21.3872 9.29768 21.5631 9.09477C21.739 8.89186 21.8641 8.64837 21.9385 8.36429H23.1357C23.068 8.82422 22.9006 9.2385 22.6335 9.60712C22.3697 9.97237 22.0197 10.2632 21.5834 10.4796C21.1505 10.6927 20.6466 10.7992 20.0717 10.7992ZM26.083 5.94964V10.6369H24.8858V0.247818H26.083V4.06256H26.1844C26.367 3.66012 26.641 3.34053 27.0062 3.1038C27.3748 2.86369 27.8652 2.74363 28.4773 2.74363C29.0083 2.74363 29.4733 2.85016 29.8723 3.06322C30.2714 3.27289 30.5808 3.59586 30.8007 4.03212C31.0239 4.465 31.1355 5.01624 31.1355 5.68585V10.6369H29.9383V5.76702C29.9383 5.14814 29.7777 4.6696 29.4564 4.33142C29.1385 3.98985 28.6971 3.81907 28.1324 3.81907C27.7401 3.81907 27.3884 3.90192 27.0772 4.06763C26.7695 4.23334 26.526 4.47515 26.3468 4.79304C26.1709 5.11094 26.083 5.49647 26.083 5.94964Z" fill="black"/>
</svg>
